<mxfile host="app.diagrams.net" modified="2020-12-11T09:12:52.026Z" agent="5.0 (Windows NT 6.3; Win64; x64) AppleWebKit/537.36 (KHTML, like Gecko) Chrome/87.0.4280.66 Safari/537.36" etag="XjpOOtLfgDu3iFKI2asS" version="13.11.0" type="github">
  <diagram id="2yt0NtMDumFtmLCEQFsJ" name="Страница 1">
    <mxGraphModel dx="1609" dy="748" grid="1" gridSize="10" guides="1" tooltips="1" connect="1" arrows="1" fold="1" page="1" pageScale="1" pageWidth="827" pageHeight="1169" math="0" shadow="0">
      <root>
        <mxCell id="0" />
        <mxCell id="1" parent="0" />
        <mxCell id="bprUigWmoyp0Zu-9HLlU-3" value="" style="edgeStyle=orthogonalEdgeStyle;rounded=0;orthogonalLoop=1;jettySize=auto;html=1;fontFamily=Courier New;" parent="1" source="bprUigWmoyp0Zu-9HLlU-1" target="bprUigWmoyp0Zu-9HLlU-2" edge="1">
          <mxGeometry relative="1" as="geometry" />
        </mxCell>
        <mxCell id="bprUigWmoyp0Zu-9HLlU-1" value="&lt;font style=&quot;font-size: 24px&quot;&gt;Маршруты&lt;/font&gt;" style="rounded=1;whiteSpace=wrap;html=1;fontFamily=Courier New;fontSize=17;fontStyle=1;labelBackgroundColor=#ffffff;strokeWidth=2;" parent="1" vertex="1">
          <mxGeometry x="360" y="320" width="180" height="80" as="geometry" />
        </mxCell>
        <mxCell id="bprUigWmoyp0Zu-9HLlU-5" value="" style="edgeStyle=orthogonalEdgeStyle;rounded=0;orthogonalLoop=1;jettySize=auto;html=1;fontFamily=Courier New;labelBackgroundColor=none;fontStyle=1" parent="1" source="bprUigWmoyp0Zu-9HLlU-2" target="bprUigWmoyp0Zu-9HLlU-4" edge="1">
          <mxGeometry relative="1" as="geometry">
            <Array as="points">
              <mxPoint x="240" y="60" />
            </Array>
          </mxGeometry>
        </mxCell>
        <mxCell id="bprUigWmoyp0Zu-9HLlU-2" value="Логика" style="rounded=0;whiteSpace=wrap;html=1;fontFamily=Courier New;fontSize=18;fontStyle=1;labelBackgroundColor=none;" parent="1" vertex="1">
          <mxGeometry x="260" y="340" width="80" height="40" as="geometry" />
        </mxCell>
        <mxCell id="bprUigWmoyp0Zu-9HLlU-4" value="время начала поездки" style="rounded=0;whiteSpace=wrap;html=1;fontFamily=Courier New;fontStyle=1;fontSize=14;fillColor=#d5e8d4;strokeColor=#82b366;shadow=0;labelBackgroundColor=none;" parent="1" vertex="1">
          <mxGeometry x="80" y="40" width="120" height="40" as="geometry" />
        </mxCell>
        <mxCell id="bprUigWmoyp0Zu-9HLlU-6" value="поле Часы" style="rounded=0;whiteSpace=wrap;html=1;fontFamily=Courier New;fontSize=14;fillColor=#f5f5f5;strokeColor=#666666;fontColor=#333333;labelBackgroundColor=none;fontStyle=1" parent="1" vertex="1">
          <mxGeometry x="-45" y="30" width="85" height="20" as="geometry" />
        </mxCell>
        <mxCell id="bprUigWmoyp0Zu-9HLlU-11" value="поле Минуты&lt;br style=&quot;font-size: 14px;&quot;&gt;" style="rounded=0;whiteSpace=wrap;html=1;fontFamily=Courier New;fontSize=14;fillColor=#f5f5f5;strokeColor=#666666;fontColor=#333333;labelBackgroundColor=none;fontStyle=1" parent="1" vertex="1">
          <mxGeometry x="-40" y="70" width="80" height="30" as="geometry" />
        </mxCell>
        <mxCell id="bprUigWmoyp0Zu-9HLlU-14" value="Маршрут поездки" style="rounded=0;whiteSpace=wrap;html=1;fontFamily=Courier New;fontStyle=1;fontSize=14;fillColor=#d5e8d4;strokeColor=#82b366;labelBackgroundColor=none;" parent="1" vertex="1">
          <mxGeometry x="80" y="240" width="120" height="40" as="geometry" />
        </mxCell>
        <mxCell id="bprUigWmoyp0Zu-9HLlU-16" value="поле Откуда" style="rounded=0;whiteSpace=wrap;html=1;fontFamily=Courier New;fontSize=14;fillColor=#f5f5f5;strokeColor=#666666;fontColor=#333333;labelBackgroundColor=none;fontStyle=1" parent="1" vertex="1">
          <mxGeometry x="-42.5" y="300" width="80" height="30" as="geometry" />
        </mxCell>
        <mxCell id="bprUigWmoyp0Zu-9HLlU-18" value="поле Куда" style="rounded=0;whiteSpace=wrap;html=1;fontFamily=Courier New;fontSize=14;fillColor=#f5f5f5;strokeColor=#666666;fontColor=#333333;labelBackgroundColor=none;fontStyle=1" parent="1" vertex="1">
          <mxGeometry x="-43.75" y="220" width="80" height="30" as="geometry" />
        </mxCell>
        <mxCell id="bprUigWmoyp0Zu-9HLlU-22" value="Переключение режима маршрута" style="rounded=0;whiteSpace=wrap;html=1;fontFamily=Courier New;fontSize=14;fontStyle=1;fillColor=#d5e8d4;strokeColor=#82b366;labelBackgroundColor=none;" parent="1" vertex="1">
          <mxGeometry x="80" y="520" width="120" height="80" as="geometry" />
        </mxCell>
        <mxCell id="bprUigWmoyp0Zu-9HLlU-25" value="Оптимальный" style="rounded=0;whiteSpace=wrap;html=1;fontFamily=Courier New;fontSize=14;fontStyle=1;fillColor=#f5f5f5;strokeColor=#666666;fontColor=#333333;labelBackgroundColor=none;" parent="1" vertex="1">
          <mxGeometry x="-68.75" y="600" width="108.75" height="30" as="geometry" />
        </mxCell>
        <mxCell id="bprUigWmoyp0Zu-9HLlU-27" value="Свой" style="rounded=0;whiteSpace=wrap;html=1;fontFamily=Courier New;fontSize=14;fontStyle=1;fillColor=#f5f5f5;strokeColor=#666666;fontColor=#333333;labelBackgroundColor=none;" parent="1" vertex="1">
          <mxGeometry x="-45" y="490" width="80" height="20" as="geometry" />
        </mxCell>
        <mxCell id="bprUigWmoyp0Zu-9HLlU-29" value="Быстрый" style="rounded=0;whiteSpace=wrap;html=1;fontFamily=Courier New;fontSize=14;fontStyle=1;fillColor=#f5f5f5;strokeColor=#666666;fontColor=#333333;labelBackgroundColor=none;" parent="1" vertex="1">
          <mxGeometry x="-46.25" y="546.88" width="82.5" height="26.25" as="geometry" />
        </mxCell>
        <mxCell id="bprUigWmoyp0Zu-9HLlU-46" value="" style="endArrow=none;html=1;fontFamily=Courier New;fontSize=16;" parent="1" edge="1">
          <mxGeometry width="50" height="50" relative="1" as="geometry">
            <mxPoint x="240" y="560" as="sourcePoint" />
            <mxPoint x="240" y="360" as="targetPoint" />
          </mxGeometry>
        </mxCell>
        <mxCell id="bprUigWmoyp0Zu-9HLlU-47" value="" style="endArrow=classic;html=1;fontFamily=Courier New;fontSize=16;entryX=1;entryY=0.5;entryDx=0;entryDy=0;fontStyle=1;labelBackgroundColor=none;" parent="1" target="bprUigWmoyp0Zu-9HLlU-22" edge="1">
          <mxGeometry width="50" height="50" relative="1" as="geometry">
            <mxPoint x="240" y="560" as="sourcePoint" />
            <mxPoint x="250" y="350" as="targetPoint" />
          </mxGeometry>
        </mxCell>
        <mxCell id="bprUigWmoyp0Zu-9HLlU-50" value="" style="endArrow=classic;html=1;fontFamily=Courier New;fontSize=14;entryX=1;entryY=0.667;entryDx=0;entryDy=0;fillColor=#f5f5f5;strokeColor=#666666;labelBackgroundColor=none;fontStyle=1;entryPerimeter=0;" parent="1" target="bprUigWmoyp0Zu-9HLlU-11" edge="1">
          <mxGeometry width="50" height="50" relative="1" as="geometry">
            <mxPoint x="70" y="90" as="sourcePoint" />
            <mxPoint x="90" y="120" as="targetPoint" />
          </mxGeometry>
        </mxCell>
        <mxCell id="bprUigWmoyp0Zu-9HLlU-51" value="" style="endArrow=classic;html=1;fontFamily=Courier New;fontSize=14;entryX=1;entryY=0.5;entryDx=0;entryDy=0;fillColor=#f5f5f5;strokeColor=#666666;labelBackgroundColor=none;fontStyle=1" parent="1" target="bprUigWmoyp0Zu-9HLlU-6" edge="1">
          <mxGeometry width="50" height="50" relative="1" as="geometry">
            <mxPoint x="70" y="40" as="sourcePoint" />
            <mxPoint x="464" y="50" as="targetPoint" />
          </mxGeometry>
        </mxCell>
        <mxCell id="bprUigWmoyp0Zu-9HLlU-63" value="" style="endArrow=classic;html=1;fontFamily=Courier New;fontSize=16;entryX=1;entryY=0.5;entryDx=0;entryDy=0;labelBackgroundColor=none;fontStyle=1" parent="1" target="bprUigWmoyp0Zu-9HLlU-14" edge="1">
          <mxGeometry width="50" height="50" relative="1" as="geometry">
            <mxPoint x="240" y="260" as="sourcePoint" />
            <mxPoint x="250" y="350" as="targetPoint" />
          </mxGeometry>
        </mxCell>
        <mxCell id="bprUigWmoyp0Zu-9HLlU-65" value="" style="endArrow=classic;html=1;fontFamily=Courier New;fontSize=14;entryX=1;entryY=0.5;entryDx=0;entryDy=0;fillColor=#f5f5f5;strokeColor=#666666;fontStyle=1;labelBackgroundColor=none;" parent="1" target="bprUigWmoyp0Zu-9HLlU-27" edge="1">
          <mxGeometry width="50" height="50" relative="1" as="geometry">
            <mxPoint x="60" y="500" as="sourcePoint" />
            <mxPoint x="250" y="350" as="targetPoint" />
          </mxGeometry>
        </mxCell>
        <mxCell id="bprUigWmoyp0Zu-9HLlU-66" value="" style="endArrow=classic;html=1;fontFamily=Courier New;fontSize=14;entryX=1;entryY=0.5;entryDx=0;entryDy=0;fillColor=#f5f5f5;strokeColor=#666666;fontStyle=1;labelBackgroundColor=none;" parent="1" target="bprUigWmoyp0Zu-9HLlU-29" edge="1">
          <mxGeometry width="50" height="50" relative="1" as="geometry">
            <mxPoint x="60" y="560" as="sourcePoint" />
            <mxPoint x="250" y="350" as="targetPoint" />
          </mxGeometry>
        </mxCell>
        <mxCell id="bprUigWmoyp0Zu-9HLlU-68" value="" style="endArrow=classic;html=1;fontFamily=Courier New;fontSize=14;fillColor=#f5f5f5;strokeColor=#666666;fontStyle=1;labelBackgroundColor=none;" parent="1" edge="1">
          <mxGeometry relative="1" as="geometry">
            <mxPoint x="60" y="620" as="sourcePoint" />
            <mxPoint x="40" y="620" as="targetPoint" />
          </mxGeometry>
        </mxCell>
        <mxCell id="tOq6qdo8Z2gQ8Yr5aN4T-1" value="" style="endArrow=classic;html=1;fontFamily=Courier New;fontSize=14;exitX=0;exitY=0.5;exitDx=0;exitDy=0;entryX=1;entryY=0.5;entryDx=0;entryDy=0;fontStyle=1;labelBackgroundColor=none;fillColor=#dae8fc;strokeColor=#6c8ebf;" parent="1" source="bprUigWmoyp0Zu-9HLlU-27" target="tOq6qdo8Z2gQ8Yr5aN4T-2" edge="1">
          <mxGeometry width="50" height="50" relative="1" as="geometry">
            <mxPoint x="110" y="420" as="sourcePoint" />
            <mxPoint x="-120" y="500" as="targetPoint" />
          </mxGeometry>
        </mxCell>
        <mxCell id="tOq6qdo8Z2gQ8Yr5aN4T-2" value="Выбор вида транспорта" style="rounded=0;whiteSpace=wrap;html=1;labelBackgroundColor=none;fontFamily=Courier New;fontSize=14;fillColor=#dae8fc;strokeColor=#6c8ebf;fontStyle=1" parent="1" vertex="1">
          <mxGeometry x="-240" y="480" width="120" height="40" as="geometry" />
        </mxCell>
        <mxCell id="tOq6qdo8Z2gQ8Yr5aN4T-6" value="Свой автомобиль" style="rounded=0;whiteSpace=wrap;html=1;labelBackgroundColor=none;fontFamily=Courier New;fontSize=14;fillColor=#fff2cc;strokeColor=#d6b656;fontStyle=1" parent="1" vertex="1">
          <mxGeometry x="-560" y="390" width="120" height="30" as="geometry" />
        </mxCell>
        <mxCell id="tOq6qdo8Z2gQ8Yr5aN4T-12" value="Каршеринг" style="rounded=0;whiteSpace=wrap;html=1;labelBackgroundColor=none;fontFamily=Courier New;fontSize=14;fillColor=#fff2cc;strokeColor=#d6b656;fontStyle=1" parent="1" vertex="1">
          <mxGeometry x="-560" y="440" width="120" height="20" as="geometry" />
        </mxCell>
        <mxCell id="tOq6qdo8Z2gQ8Yr5aN4T-13" value="Такси" style="rounded=0;whiteSpace=wrap;html=1;labelBackgroundColor=none;fontFamily=Courier New;fontSize=14;fillColor=#fff2cc;strokeColor=#d6b656;fontStyle=1" parent="1" vertex="1">
          <mxGeometry x="-560" y="480" width="120" height="20" as="geometry" />
        </mxCell>
        <mxCell id="tOq6qdo8Z2gQ8Yr5aN4T-14" value="Самокат" style="rounded=0;whiteSpace=wrap;html=1;labelBackgroundColor=none;fontFamily=Courier New;fontSize=14;fillColor=#fff2cc;strokeColor=#d6b656;fontStyle=1" parent="1" vertex="1">
          <mxGeometry x="-560" y="520" width="120" height="20" as="geometry" />
        </mxCell>
        <mxCell id="tOq6qdo8Z2gQ8Yr5aN4T-15" value="Велосипед" style="rounded=0;whiteSpace=wrap;html=1;labelBackgroundColor=none;fontFamily=Courier New;fontSize=14;fillColor=#fff2cc;strokeColor=#d6b656;fontStyle=1" parent="1" vertex="1">
          <mxGeometry x="-560" y="600" width="120" height="20" as="geometry" />
        </mxCell>
        <mxCell id="tOq6qdo8Z2gQ8Yr5aN4T-16" value="Пешком" style="rounded=0;whiteSpace=wrap;html=1;labelBackgroundColor=none;fontFamily=Courier New;fontSize=14;fillColor=#fff2cc;strokeColor=#d6b656;fontStyle=1" parent="1" vertex="1">
          <mxGeometry x="-560" y="560" width="120" height="20" as="geometry" />
        </mxCell>
        <mxCell id="tOq6qdo8Z2gQ8Yr5aN4T-20" value="" style="endArrow=none;html=1;fontFamily=Courier New;fontSize=14;entryX=0;entryY=0.5;entryDx=0;entryDy=0;fontStyle=1;labelBackgroundColor=none;fillColor=#fff2cc;strokeColor=#d6b656;" parent="1" target="tOq6qdo8Z2gQ8Yr5aN4T-2" edge="1">
          <mxGeometry width="50" height="50" relative="1" as="geometry">
            <mxPoint x="-420" y="500" as="sourcePoint" />
            <mxPoint x="-140" y="570" as="targetPoint" />
          </mxGeometry>
        </mxCell>
        <mxCell id="tOq6qdo8Z2gQ8Yr5aN4T-21" value="" style="endArrow=none;html=1;fontFamily=Courier New;fontSize=14;fillColor=#fff2cc;strokeColor=#d6b656;fontStyle=1;labelBackgroundColor=none;" parent="1" edge="1">
          <mxGeometry width="50" height="50" relative="1" as="geometry">
            <mxPoint x="-420" y="610" as="sourcePoint" />
            <mxPoint x="-420" y="410" as="targetPoint" />
          </mxGeometry>
        </mxCell>
        <mxCell id="tOq6qdo8Z2gQ8Yr5aN4T-23" value="" style="endArrow=classic;html=1;fontFamily=Courier New;fontSize=14;entryX=1;entryY=0.5;entryDx=0;entryDy=0;fillColor=#fff2cc;strokeColor=#d6b656;fontStyle=1;labelBackgroundColor=none;" parent="1" target="tOq6qdo8Z2gQ8Yr5aN4T-12" edge="1">
          <mxGeometry width="50" height="50" relative="1" as="geometry">
            <mxPoint x="-420" y="450" as="sourcePoint" />
            <mxPoint x="-430" y="420" as="targetPoint" />
          </mxGeometry>
        </mxCell>
        <mxCell id="tOq6qdo8Z2gQ8Yr5aN4T-24" value="" style="endArrow=classic;html=1;fontFamily=Courier New;fontSize=14;entryX=1;entryY=0.5;entryDx=0;entryDy=0;fillColor=#fff2cc;strokeColor=#d6b656;fontStyle=1;labelBackgroundColor=none;" parent="1" target="tOq6qdo8Z2gQ8Yr5aN4T-13" edge="1">
          <mxGeometry width="50" height="50" relative="1" as="geometry">
            <mxPoint x="-420" y="490" as="sourcePoint" />
            <mxPoint x="-420" y="430" as="targetPoint" />
          </mxGeometry>
        </mxCell>
        <mxCell id="tOq6qdo8Z2gQ8Yr5aN4T-25" value="" style="endArrow=classic;html=1;fontFamily=Courier New;fontSize=14;entryX=1;entryY=0.5;entryDx=0;entryDy=0;fillColor=#fff2cc;strokeColor=#d6b656;fontStyle=1;labelBackgroundColor=none;" parent="1" target="tOq6qdo8Z2gQ8Yr5aN4T-14" edge="1">
          <mxGeometry width="50" height="50" relative="1" as="geometry">
            <mxPoint x="-420" y="530" as="sourcePoint" />
            <mxPoint x="-430" y="540" as="targetPoint" />
          </mxGeometry>
        </mxCell>
        <mxCell id="tOq6qdo8Z2gQ8Yr5aN4T-26" value="" style="endArrow=classic;html=1;fontFamily=Courier New;fontSize=14;entryX=1;entryY=0.5;entryDx=0;entryDy=0;fillColor=#fff2cc;strokeColor=#d6b656;fontStyle=1;labelBackgroundColor=none;" parent="1" target="tOq6qdo8Z2gQ8Yr5aN4T-16" edge="1">
          <mxGeometry width="50" height="50" relative="1" as="geometry">
            <mxPoint x="-420" y="570" as="sourcePoint" />
            <mxPoint x="-420" y="550" as="targetPoint" />
          </mxGeometry>
        </mxCell>
        <mxCell id="tOq6qdo8Z2gQ8Yr5aN4T-27" value="" style="endArrow=classic;html=1;fontFamily=Courier New;fontSize=14;entryX=1;entryY=0.5;entryDx=0;entryDy=0;fillColor=#fff2cc;strokeColor=#d6b656;fontStyle=1;labelBackgroundColor=none;" parent="1" target="tOq6qdo8Z2gQ8Yr5aN4T-15" edge="1">
          <mxGeometry width="50" height="50" relative="1" as="geometry">
            <mxPoint x="-420" y="610" as="sourcePoint" />
            <mxPoint x="-430" y="650" as="targetPoint" />
          </mxGeometry>
        </mxCell>
        <mxCell id="tOq6qdo8Z2gQ8Yr5aN4T-30" value="На карте отображается точка А" style="rounded=0;whiteSpace=wrap;html=1;labelBackgroundColor=none;fontFamily=Courier New;fontSize=14;align=left;fillColor=#dae8fc;strokeColor=#6c8ebf;fontStyle=1" parent="1" vertex="1">
          <mxGeometry x="-400" y="200" width="280" height="20" as="geometry" />
        </mxCell>
        <mxCell id="tOq6qdo8Z2gQ8Yr5aN4T-32" value="На карте не отображается точка А" style="rounded=0;whiteSpace=wrap;html=1;labelBackgroundColor=none;fontFamily=Courier New;fontSize=14;fillColor=#dae8fc;strokeColor=#6c8ebf;fontStyle=1" parent="1" vertex="1">
          <mxGeometry x="-400" y="240" width="280" height="20" as="geometry" />
        </mxCell>
        <mxCell id="tOq6qdo8Z2gQ8Yr5aN4T-35" value="На карте отображается точка В" style="rounded=0;whiteSpace=wrap;html=1;labelBackgroundColor=none;fontFamily=Courier New;fontSize=14;align=left;fillColor=#dae8fc;strokeColor=#6c8ebf;fontStyle=1" parent="1" vertex="1">
          <mxGeometry x="-400" y="290" width="280" height="20" as="geometry" />
        </mxCell>
        <mxCell id="tOq6qdo8Z2gQ8Yr5aN4T-36" value="На карте не отображается точка В" style="rounded=0;whiteSpace=wrap;html=1;labelBackgroundColor=none;fontFamily=Courier New;fontSize=14;fillColor=#dae8fc;strokeColor=#6c8ebf;fontStyle=1" parent="1" vertex="1">
          <mxGeometry x="-400" y="330" width="280" height="20" as="geometry" />
        </mxCell>
        <mxCell id="tOq6qdo8Z2gQ8Yr5aN4T-37" value="" style="endArrow=classic;html=1;fontFamily=Courier New;fontSize=14;entryX=1;entryY=0.5;entryDx=0;entryDy=0;fillColor=#dae8fc;strokeColor=#6c8ebf;labelBackgroundColor=none;fontStyle=1" parent="1" target="tOq6qdo8Z2gQ8Yr5aN4T-32" edge="1">
          <mxGeometry width="50" height="50" relative="1" as="geometry">
            <mxPoint x="-90" y="250" as="sourcePoint" />
            <mxPoint x="-50" y="280" as="targetPoint" />
          </mxGeometry>
        </mxCell>
        <mxCell id="tOq6qdo8Z2gQ8Yr5aN4T-38" value="" style="endArrow=classic;html=1;fontFamily=Courier New;fontSize=14;entryX=1;entryY=0.5;entryDx=0;entryDy=0;fillColor=#dae8fc;strokeColor=#6c8ebf;labelBackgroundColor=none;fontStyle=1" parent="1" target="tOq6qdo8Z2gQ8Yr5aN4T-30" edge="1">
          <mxGeometry width="50" height="50" relative="1" as="geometry">
            <mxPoint x="-90" y="210" as="sourcePoint" />
            <mxPoint x="-80" y="260" as="targetPoint" />
          </mxGeometry>
        </mxCell>
        <mxCell id="tOq6qdo8Z2gQ8Yr5aN4T-40" value="" style="endArrow=classic;html=1;fontFamily=Courier New;fontSize=14;entryX=1;entryY=0.5;entryDx=0;entryDy=0;fillColor=#dae8fc;strokeColor=#6c8ebf;labelBackgroundColor=none;fontStyle=1" parent="1" target="tOq6qdo8Z2gQ8Yr5aN4T-36" edge="1">
          <mxGeometry width="50" height="50" relative="1" as="geometry">
            <mxPoint x="-90" y="340" as="sourcePoint" />
            <mxPoint x="-80" y="260" as="targetPoint" />
            <Array as="points">
              <mxPoint x="-100" y="340" />
            </Array>
          </mxGeometry>
        </mxCell>
        <mxCell id="tOq6qdo8Z2gQ8Yr5aN4T-41" value="" style="endArrow=classic;html=1;fontFamily=Courier New;fontSize=14;entryX=1;entryY=0.5;entryDx=0;entryDy=0;fillColor=#dae8fc;strokeColor=#6c8ebf;labelBackgroundColor=none;fontStyle=1" parent="1" target="tOq6qdo8Z2gQ8Yr5aN4T-35" edge="1">
          <mxGeometry width="50" height="50" relative="1" as="geometry">
            <mxPoint x="-90" y="300" as="sourcePoint" />
            <mxPoint x="-70" y="270" as="targetPoint" />
          </mxGeometry>
        </mxCell>
        <mxCell id="tOq6qdo8Z2gQ8Yr5aN4T-43" value="Автоматическое назначение вида транспорта" style="rounded=0;whiteSpace=wrap;html=1;labelBackgroundColor=none;fontFamily=Courier New;fontSize=14;align=left;fillColor=#dae8fc;strokeColor=#6c8ebf;fontStyle=1" parent="1" vertex="1">
          <mxGeometry x="-240" y="563.75" width="120" height="76.25" as="geometry" />
        </mxCell>
        <mxCell id="tOq6qdo8Z2gQ8Yr5aN4T-50" value="" style="endArrow=classic;html=1;fontFamily=Courier New;fontSize=14;entryX=1;entryY=0.5;entryDx=0;entryDy=0;fontStyle=1;labelBackgroundColor=none;" parent="1" target="tOq6qdo8Z2gQ8Yr5aN4T-43" edge="1">
          <mxGeometry width="50" height="50" relative="1" as="geometry">
            <mxPoint x="-90" y="602" as="sourcePoint" />
            <mxPoint x="-20" y="560" as="targetPoint" />
          </mxGeometry>
        </mxCell>
        <mxCell id="tOq6qdo8Z2gQ8Yr5aN4T-55" value="Интерфейс" style="rounded=0;whiteSpace=wrap;html=1;fontFamily=Courier New;fontSize=18;fontStyle=1;labelBackgroundColor=none;" parent="1" vertex="1">
          <mxGeometry x="560" y="340" width="110" height="40" as="geometry" />
        </mxCell>
        <mxCell id="tOq6qdo8Z2gQ8Yr5aN4T-56" value="" style="endArrow=classic;html=1;fontFamily=Courier New;fontSize=14;exitX=1;exitY=0.5;exitDx=0;exitDy=0;labelBackgroundColor=none;" parent="1" source="bprUigWmoyp0Zu-9HLlU-1" target="tOq6qdo8Z2gQ8Yr5aN4T-55" edge="1">
          <mxGeometry width="50" height="50" relative="1" as="geometry">
            <mxPoint x="480" y="330" as="sourcePoint" />
            <mxPoint x="530" y="280" as="targetPoint" />
          </mxGeometry>
        </mxCell>
        <mxCell id="tOq6qdo8Z2gQ8Yr5aN4T-57" value="" style="endArrow=none;html=1;fontFamily=Courier New;fontSize=14;entryX=1;entryY=0.5;entryDx=0;entryDy=0;labelBackgroundColor=none;" parent="1" target="tOq6qdo8Z2gQ8Yr5aN4T-55" edge="1">
          <mxGeometry width="50" height="50" relative="1" as="geometry">
            <mxPoint x="680" y="360" as="sourcePoint" />
            <mxPoint x="530" y="280" as="targetPoint" />
          </mxGeometry>
        </mxCell>
        <mxCell id="tOq6qdo8Z2gQ8Yr5aN4T-61" value="Карта" style="rounded=0;whiteSpace=wrap;html=1;labelBackgroundColor=none;fontFamily=Courier New;fontSize=14;align=center;fontStyle=1;fillColor=#f5f5f5;strokeColor=#666666;fontColor=#333333;" parent="1" vertex="1">
          <mxGeometry x="760" y="60" width="80" height="20" as="geometry" />
        </mxCell>
        <mxCell id="tOq6qdo8Z2gQ8Yr5aN4T-62" value="Ползунок для приближения / отдаления" style="rounded=0;whiteSpace=wrap;html=1;labelBackgroundColor=none;fontFamily=Courier New;fontSize=14;align=center;fontStyle=1;fillColor=#f5f5f5;strokeColor=#666666;fontColor=#333333;" parent="1" vertex="1">
          <mxGeometry x="760" y="90" width="200" height="30" as="geometry" />
        </mxCell>
        <mxCell id="tOq6qdo8Z2gQ8Yr5aN4T-63" value="Копирайт" style="rounded=0;whiteSpace=wrap;html=1;labelBackgroundColor=none;fontFamily=Courier New;fontSize=14;align=center;fontStyle=1;fillColor=#f5f5f5;strokeColor=#666666;fontColor=#333333;" parent="1" vertex="1">
          <mxGeometry x="760" y="140" width="80" height="20" as="geometry" />
        </mxCell>
        <mxCell id="tOq6qdo8Z2gQ8Yr5aN4T-64" value="Условия использования" style="rounded=0;whiteSpace=wrap;html=1;labelBackgroundColor=none;fontFamily=Courier New;fontSize=14;align=center;fontStyle=1;fillColor=#f5f5f5;strokeColor=#666666;fontColor=#333333;" parent="1" vertex="1">
          <mxGeometry x="760" y="180" width="120" height="30" as="geometry" />
        </mxCell>
        <mxCell id="tOq6qdo8Z2gQ8Yr5aN4T-72" value="" style="endArrow=none;html=1;fontFamily=Courier New;fontSize=14;fillColor=#f5f5f5;strokeColor=#666666;labelBackgroundColor=none;" parent="1" edge="1">
          <mxGeometry width="50" height="50" relative="1" as="geometry">
            <mxPoint x="740" y="200" as="sourcePoint" />
            <mxPoint x="740" y="70" as="targetPoint" />
          </mxGeometry>
        </mxCell>
        <mxCell id="tOq6qdo8Z2gQ8Yr5aN4T-75" value="" style="endArrow=classic;html=1;fontFamily=Courier New;fontSize=14;fillColor=#f5f5f5;strokeColor=#666666;labelBackgroundColor=none;" parent="1" edge="1">
          <mxGeometry width="50" height="50" relative="1" as="geometry">
            <mxPoint x="740" y="200" as="sourcePoint" />
            <mxPoint x="760" y="200" as="targetPoint" />
          </mxGeometry>
        </mxCell>
        <mxCell id="tOq6qdo8Z2gQ8Yr5aN4T-76" value="" style="endArrow=classic;html=1;fontFamily=Courier New;fontSize=14;entryX=0;entryY=0.5;entryDx=0;entryDy=0;fillColor=#f5f5f5;strokeColor=#666666;labelBackgroundColor=none;" parent="1" target="tOq6qdo8Z2gQ8Yr5aN4T-63" edge="1">
          <mxGeometry width="50" height="50" relative="1" as="geometry">
            <mxPoint x="740" y="150" as="sourcePoint" />
            <mxPoint x="770" y="210" as="targetPoint" />
          </mxGeometry>
        </mxCell>
        <mxCell id="tOq6qdo8Z2gQ8Yr5aN4T-77" value="" style="endArrow=classic;html=1;fontFamily=Courier New;fontSize=14;fillColor=#f5f5f5;strokeColor=#666666;labelBackgroundColor=none;" parent="1" edge="1">
          <mxGeometry width="50" height="50" relative="1" as="geometry">
            <mxPoint x="740" y="100" as="sourcePoint" />
            <mxPoint x="760" y="100" as="targetPoint" />
          </mxGeometry>
        </mxCell>
        <mxCell id="tOq6qdo8Z2gQ8Yr5aN4T-78" value="" style="endArrow=classic;html=1;fontFamily=Courier New;fontSize=14;entryX=0;entryY=0.5;entryDx=0;entryDy=0;fillColor=#f5f5f5;strokeColor=#666666;labelBackgroundColor=none;" parent="1" target="tOq6qdo8Z2gQ8Yr5aN4T-61" edge="1">
          <mxGeometry width="50" height="50" relative="1" as="geometry">
            <mxPoint x="740" y="70" as="sourcePoint" />
            <mxPoint x="770" y="110" as="targetPoint" />
          </mxGeometry>
        </mxCell>
        <mxCell id="tOq6qdo8Z2gQ8Yr5aN4T-82" value="" style="endArrow=none;html=1;fontFamily=Courier New;fontSize=14;entryX=1;entryY=0.5;entryDx=0;entryDy=0;fillColor=#dae8fc;strokeColor=#6c8ebf;labelBackgroundColor=none;" parent="1" edge="1">
          <mxGeometry width="50" height="50" relative="1" as="geometry">
            <mxPoint x="740" y="100" as="sourcePoint" />
            <mxPoint x="720" y="100" as="targetPoint" />
          </mxGeometry>
        </mxCell>
        <mxCell id="tOq6qdo8Z2gQ8Yr5aN4T-84" value="время начала поездки" style="rounded=0;whiteSpace=wrap;html=1;fontFamily=Courier New;fontStyle=1;fontSize=14;fillColor=#f5f5f5;strokeColor=#666666;fontColor=#333333;labelBackgroundColor=none;" parent="1" vertex="1">
          <mxGeometry x="760" y="260" width="120" height="40" as="geometry" />
        </mxCell>
        <mxCell id="tOq6qdo8Z2gQ8Yr5aN4T-85" value="&lt;span style=&quot;&quot;&gt;поле Часы&lt;/span&gt;" style="rounded=0;whiteSpace=wrap;html=1;fontFamily=Courier New;fontSize=14;fillColor=#dae8fc;strokeColor=#6c8ebf;labelBackgroundColor=none;fontStyle=1" parent="1" vertex="1">
          <mxGeometry x="1007.5" y="240" width="85" height="20" as="geometry" />
        </mxCell>
        <mxCell id="tOq6qdo8Z2gQ8Yr5aN4T-86" style="edgeStyle=orthogonalEdgeStyle;rounded=0;orthogonalLoop=1;jettySize=auto;html=1;fontFamily=Courier New;fontSize=14;fillColor=#f5f5f5;strokeColor=#666666;labelBackgroundColor=none;" parent="1" edge="1">
          <mxGeometry relative="1" as="geometry">
            <mxPoint x="760" y="280" as="targetPoint" />
            <mxPoint x="740" y="280" as="sourcePoint" />
          </mxGeometry>
        </mxCell>
        <mxCell id="tOq6qdo8Z2gQ8Yr5aN4T-87" value="&lt;span style=&quot;&quot;&gt;поле Минуты&lt;/span&gt;" style="rounded=0;whiteSpace=wrap;html=1;fontFamily=Courier New;fontSize=14;fillColor=#dae8fc;strokeColor=#6c8ebf;labelBackgroundColor=none;fontStyle=1" parent="1" vertex="1">
          <mxGeometry x="1024.38" y="270" width="80" height="30" as="geometry" />
        </mxCell>
        <mxCell id="tOq6qdo8Z2gQ8Yr5aN4T-88" value="" style="endArrow=classic;html=1;fontFamily=Courier New;fontSize=14;fillColor=#dae8fc;strokeColor=#6c8ebf;labelBackgroundColor=none;" parent="1" edge="1">
          <mxGeometry width="50" height="50" relative="1" as="geometry">
            <mxPoint x="980" y="290" as="sourcePoint" />
            <mxPoint x="1024" y="290" as="targetPoint" />
          </mxGeometry>
        </mxCell>
        <mxCell id="tOq6qdo8Z2gQ8Yr5aN4T-89" value="" style="endArrow=classic;html=1;fontFamily=Courier New;fontSize=14;entryX=0;entryY=0.5;entryDx=0;entryDy=0;fillColor=#dae8fc;strokeColor=#6c8ebf;labelBackgroundColor=none;" parent="1" target="tOq6qdo8Z2gQ8Yr5aN4T-85" edge="1">
          <mxGeometry width="50" height="50" relative="1" as="geometry">
            <mxPoint x="980" y="250" as="sourcePoint" />
            <mxPoint x="1369" y="350" as="targetPoint" />
          </mxGeometry>
        </mxCell>
        <mxCell id="tOq6qdo8Z2gQ8Yr5aN4T-90" value="Маршрут поездки" style="rounded=0;whiteSpace=wrap;html=1;fontFamily=Courier New;fontStyle=1;fontSize=14;fillColor=#f5f5f5;strokeColor=#666666;fontColor=#333333;labelBackgroundColor=none;" parent="1" vertex="1">
          <mxGeometry x="760" y="350" width="120" height="40" as="geometry" />
        </mxCell>
        <mxCell id="tOq6qdo8Z2gQ8Yr5aN4T-91" value="поле Откуда" style="rounded=0;whiteSpace=wrap;html=1;fontFamily=Courier New;fontSize=14;fillColor=#dae8fc;strokeColor=#6c8ebf;labelBackgroundColor=none;fontStyle=1" parent="1" vertex="1">
          <mxGeometry x="1012.5" y="380" width="80" height="30" as="geometry" />
        </mxCell>
        <mxCell id="tOq6qdo8Z2gQ8Yr5aN4T-92" value="&lt;span style=&quot;&quot;&gt;поле Куда&lt;/span&gt;" style="rounded=0;whiteSpace=wrap;html=1;fontFamily=Courier New;fontSize=14;fillColor=#dae8fc;strokeColor=#6c8ebf;labelBackgroundColor=none;fontStyle=1" parent="1" vertex="1">
          <mxGeometry x="1007.5" y="340" width="80" height="20" as="geometry" />
        </mxCell>
        <mxCell id="tOq6qdo8Z2gQ8Yr5aN4T-93" value="" style="endArrow=classic;html=1;fontFamily=Courier New;fontSize=14;entryX=0;entryY=0.5;entryDx=0;entryDy=0;fillColor=#dae8fc;strokeColor=#6c8ebf;labelBackgroundColor=none;" parent="1" target="tOq6qdo8Z2gQ8Yr5aN4T-92" edge="1">
          <mxGeometry relative="1" as="geometry">
            <mxPoint x="980" y="350" as="sourcePoint" />
            <mxPoint x="1040" y="493.75" as="targetPoint" />
          </mxGeometry>
        </mxCell>
        <mxCell id="tOq6qdo8Z2gQ8Yr5aN4T-95" value="Переключение режима маршрута" style="rounded=0;whiteSpace=wrap;html=1;fontFamily=Courier New;fontSize=14;fontStyle=1;fillColor=#f5f5f5;strokeColor=#666666;fontColor=#333333;labelBackgroundColor=none;" parent="1" vertex="1">
          <mxGeometry x="760" y="460" width="120" height="80" as="geometry" />
        </mxCell>
        <mxCell id="tOq6qdo8Z2gQ8Yr5aN4T-97" value="Свой" style="rounded=0;whiteSpace=wrap;html=1;fontFamily=Courier New;fontSize=14;fontStyle=1;fillColor=#dae8fc;strokeColor=#6c8ebf;labelBackgroundColor=none;" parent="1" vertex="1">
          <mxGeometry x="1010" y="443.75" width="80" height="20" as="geometry" />
        </mxCell>
        <mxCell id="tOq6qdo8Z2gQ8Yr5aN4T-98" value="Быстрый" style="rounded=0;whiteSpace=wrap;html=1;fontFamily=Courier New;fontSize=14;fontStyle=1;fillColor=#dae8fc;strokeColor=#6c8ebf;labelBackgroundColor=none;" parent="1" vertex="1">
          <mxGeometry x="1011.25" y="480" width="82.5" height="22.5" as="geometry" />
        </mxCell>
        <mxCell id="tOq6qdo8Z2gQ8Yr5aN4T-102" value="Свой автомобиль" style="rounded=0;whiteSpace=wrap;html=1;labelBackgroundColor=none;fontFamily=Courier New;fontSize=14;fillColor=#dae8fc;strokeColor=#6c8ebf;fontStyle=1" parent="1" vertex="1">
          <mxGeometry x="1010" y="563.75" width="120" height="30" as="geometry" />
        </mxCell>
        <mxCell id="tOq6qdo8Z2gQ8Yr5aN4T-103" value="Каршеринг" style="rounded=0;whiteSpace=wrap;html=1;labelBackgroundColor=none;fontFamily=Courier New;fontSize=14;fillColor=#dae8fc;strokeColor=#6c8ebf;fontStyle=1" parent="1" vertex="1">
          <mxGeometry x="1010" y="603.75" width="120" height="20" as="geometry" />
        </mxCell>
        <mxCell id="tOq6qdo8Z2gQ8Yr5aN4T-104" value="Такси" style="rounded=0;whiteSpace=wrap;html=1;labelBackgroundColor=none;fontFamily=Courier New;fontSize=14;fillColor=#dae8fc;strokeColor=#6c8ebf;fontStyle=1" parent="1" vertex="1">
          <mxGeometry x="1010" y="643.75" width="120" height="20" as="geometry" />
        </mxCell>
        <mxCell id="tOq6qdo8Z2gQ8Yr5aN4T-105" value="Самокат" style="rounded=0;whiteSpace=wrap;html=1;labelBackgroundColor=none;fontFamily=Courier New;fontSize=14;fillColor=#dae8fc;strokeColor=#6c8ebf;fontStyle=1" parent="1" vertex="1">
          <mxGeometry x="1010" y="683.75" width="120" height="20" as="geometry" />
        </mxCell>
        <mxCell id="tOq6qdo8Z2gQ8Yr5aN4T-106" value="Велосипед" style="rounded=0;whiteSpace=wrap;html=1;labelBackgroundColor=none;fontFamily=Courier New;fontSize=14;fillColor=#dae8fc;strokeColor=#6c8ebf;fontStyle=1" parent="1" vertex="1">
          <mxGeometry x="1010" y="763.75" width="120" height="20" as="geometry" />
        </mxCell>
        <mxCell id="tOq6qdo8Z2gQ8Yr5aN4T-107" value="Пешком" style="rounded=0;whiteSpace=wrap;html=1;labelBackgroundColor=none;fontFamily=Courier New;fontSize=14;fillColor=#dae8fc;strokeColor=#6c8ebf;fontStyle=1" parent="1" vertex="1">
          <mxGeometry x="1010" y="723.75" width="120" height="20" as="geometry" />
        </mxCell>
        <mxCell id="tOq6qdo8Z2gQ8Yr5aN4T-108" value="" style="endArrow=none;html=1;fontFamily=Courier New;fontSize=14;fillColor=#dae8fc;strokeColor=#6c8ebf;labelBackgroundColor=none;rounded=0;" parent="1" edge="1">
          <mxGeometry width="50" height="50" relative="1" as="geometry">
            <mxPoint x="990" y="780" as="sourcePoint" />
            <mxPoint x="990" y="580" as="targetPoint" />
            <Array as="points" />
          </mxGeometry>
        </mxCell>
        <mxCell id="tOq6qdo8Z2gQ8Yr5aN4T-117" value="" style="endArrow=classic;html=1;fontFamily=Courier New;fontSize=14;entryX=0;entryY=0.5;entryDx=0;entryDy=0;fillColor=#dae8fc;strokeColor=#6c8ebf;labelBackgroundColor=none;" parent="1" target="tOq6qdo8Z2gQ8Yr5aN4T-103" edge="1">
          <mxGeometry width="50" height="50" relative="1" as="geometry">
            <mxPoint x="990" y="613.75" as="sourcePoint" />
            <mxPoint x="1020" y="593.75" as="targetPoint" />
          </mxGeometry>
        </mxCell>
        <mxCell id="tOq6qdo8Z2gQ8Yr5aN4T-118" value="" style="endArrow=classic;html=1;fontFamily=Courier New;fontSize=14;entryX=0;entryY=0.5;entryDx=0;entryDy=0;fillColor=#dae8fc;strokeColor=#6c8ebf;labelBackgroundColor=none;" parent="1" edge="1" target="tOq6qdo8Z2gQ8Yr5aN4T-104">
          <mxGeometry width="50" height="50" relative="1" as="geometry">
            <mxPoint x="990" y="653.75" as="sourcePoint" />
            <mxPoint x="1010" y="703.5" as="targetPoint" />
          </mxGeometry>
        </mxCell>
        <mxCell id="tOq6qdo8Z2gQ8Yr5aN4T-122" value="Блок с выбранным транспортом" style="rounded=0;whiteSpace=wrap;html=1;fontFamily=Courier New;fontSize=14;fontStyle=1;fillColor=#f5f5f5;strokeColor=#666666;fontColor=#333333;labelBackgroundColor=none;" parent="1" vertex="1">
          <mxGeometry x="760" y="653.75" width="120" height="80" as="geometry" />
        </mxCell>
        <mxCell id="tOq6qdo8Z2gQ8Yr5aN4T-123" value="" style="endArrow=none;html=1;fontFamily=Courier New;fontSize=14;fillColor=#dae8fc;strokeColor=#6c8ebf;labelBackgroundColor=none;" parent="1" edge="1">
          <mxGeometry width="50" height="50" relative="1" as="geometry">
            <mxPoint x="880" y="683.75" as="sourcePoint" />
            <mxPoint x="990" y="683.75" as="targetPoint" />
          </mxGeometry>
        </mxCell>
        <mxCell id="tOq6qdo8Z2gQ8Yr5aN4T-127" value="" style="endArrow=none;html=1;fontFamily=Courier New;fontSize=14;fillColor=#dae8fc;strokeColor=#6c8ebf;labelBackgroundColor=none;" parent="1" edge="1">
          <mxGeometry width="50" height="50" relative="1" as="geometry">
            <mxPoint x="990" y="502" as="sourcePoint" />
            <mxPoint x="880" y="501.63" as="targetPoint" />
          </mxGeometry>
        </mxCell>
        <mxCell id="tOq6qdo8Z2gQ8Yr5aN4T-130" value="" style="endArrow=classic;html=1;fontFamily=Courier New;fontSize=14;entryX=0;entryY=0.5;entryDx=0;entryDy=0;fillColor=#dae8fc;strokeColor=#6c8ebf;labelBackgroundColor=none;" parent="1" target="tOq6qdo8Z2gQ8Yr5aN4T-96" edge="1">
          <mxGeometry width="50" height="50" relative="1" as="geometry">
            <mxPoint x="990" y="520" as="sourcePoint" />
            <mxPoint x="980" y="720" as="targetPoint" />
          </mxGeometry>
        </mxCell>
        <mxCell id="tOq6qdo8Z2gQ8Yr5aN4T-96" value="Оптимальный" style="rounded=0;whiteSpace=wrap;html=1;fontFamily=Courier New;fontSize=14;fontStyle=1;fillColor=#dae8fc;strokeColor=#6c8ebf;labelBackgroundColor=none;" parent="1" vertex="1">
          <mxGeometry x="1012.5" y="510" width="108.75" height="20" as="geometry" />
        </mxCell>
        <mxCell id="tOq6qdo8Z2gQ8Yr5aN4T-132" value="" style="endArrow=classic;html=1;fontFamily=Courier New;fontSize=14;fillColor=#dae8fc;strokeColor=#6c8ebf;labelBackgroundColor=none;" parent="1" edge="1">
          <mxGeometry width="50" height="50" relative="1" as="geometry">
            <mxPoint x="991.25" y="491" as="sourcePoint" />
            <mxPoint x="1011.25" y="491" as="targetPoint" />
          </mxGeometry>
        </mxCell>
        <mxCell id="tOq6qdo8Z2gQ8Yr5aN4T-133" value="" style="endArrow=classic;html=1;fontFamily=Courier New;fontSize=14;entryX=0;entryY=0.75;entryDx=0;entryDy=0;fillColor=#dae8fc;strokeColor=#6c8ebf;labelBackgroundColor=none;" parent="1" target="tOq6qdo8Z2gQ8Yr5aN4T-97" edge="1">
          <mxGeometry width="50" height="50" relative="1" as="geometry">
            <mxPoint x="990" y="460" as="sourcePoint" />
            <mxPoint x="1020" y="560" as="targetPoint" />
          </mxGeometry>
        </mxCell>
        <mxCell id="AMXs057CgpVHMIE-D2bi-1" value="" style="endArrow=none;html=1;fillColor=#dae8fc;strokeColor=#6c8ebf;labelBackgroundColor=none;" parent="1" edge="1">
          <mxGeometry width="50" height="50" relative="1" as="geometry">
            <mxPoint x="980" y="400" as="sourcePoint" />
            <mxPoint x="980" y="350" as="targetPoint" />
          </mxGeometry>
        </mxCell>
        <mxCell id="AMXs057CgpVHMIE-D2bi-2" value="" style="endArrow=none;html=1;exitX=1;exitY=0.5;exitDx=0;exitDy=0;fillColor=#dae8fc;strokeColor=#6c8ebf;labelBackgroundColor=none;" parent="1" source="tOq6qdo8Z2gQ8Yr5aN4T-90" edge="1">
          <mxGeometry width="50" height="50" relative="1" as="geometry">
            <mxPoint x="800" y="660" as="sourcePoint" />
            <mxPoint x="980" y="370" as="targetPoint" />
          </mxGeometry>
        </mxCell>
        <mxCell id="AMXs057CgpVHMIE-D2bi-3" value="" style="endArrow=none;html=1;fillColor=#dae8fc;strokeColor=#6c8ebf;labelBackgroundColor=none;" parent="1" edge="1">
          <mxGeometry width="50" height="50" relative="1" as="geometry">
            <mxPoint x="980" y="290" as="sourcePoint" />
            <mxPoint x="980" y="250" as="targetPoint" />
          </mxGeometry>
        </mxCell>
        <mxCell id="AMXs057CgpVHMIE-D2bi-4" value="" style="endArrow=none;html=1;entryX=1;entryY=0.5;entryDx=0;entryDy=0;fillColor=#dae8fc;strokeColor=#6c8ebf;labelBackgroundColor=none;" parent="1" target="tOq6qdo8Z2gQ8Yr5aN4T-84" edge="1">
          <mxGeometry width="50" height="50" relative="1" as="geometry">
            <mxPoint x="980" y="280" as="sourcePoint" />
            <mxPoint x="850" y="410" as="targetPoint" />
          </mxGeometry>
        </mxCell>
        <mxCell id="AMXs057CgpVHMIE-D2bi-6" value="" style="endArrow=none;html=1;entryX=0;entryY=0.5;entryDx=0;entryDy=0;fillColor=#d5e8d4;strokeColor=#82b366;labelBackgroundColor=none;fontStyle=1" parent="1" target="bprUigWmoyp0Zu-9HLlU-4" edge="1">
          <mxGeometry width="50" height="50" relative="1" as="geometry">
            <mxPoint x="70" y="60" as="sourcePoint" />
            <mxPoint x="60" y="80" as="targetPoint" />
          </mxGeometry>
        </mxCell>
        <mxCell id="AMXs057CgpVHMIE-D2bi-7" value="" style="endArrow=none;html=1;fillColor=#f5f5f5;strokeColor=#666666;labelBackgroundColor=none;fontStyle=1" parent="1" edge="1">
          <mxGeometry width="50" height="50" relative="1" as="geometry">
            <mxPoint x="70" y="320" as="sourcePoint" />
            <mxPoint x="70" y="230" as="targetPoint" />
          </mxGeometry>
        </mxCell>
        <mxCell id="AMXs057CgpVHMIE-D2bi-8" value="" style="endArrow=none;html=1;entryX=0;entryY=0.5;entryDx=0;entryDy=0;labelBackgroundColor=none;fontStyle=1" parent="1" target="bprUigWmoyp0Zu-9HLlU-14" edge="1">
          <mxGeometry width="50" height="50" relative="1" as="geometry">
            <mxPoint x="70" y="260" as="sourcePoint" />
            <mxPoint x="60" y="180" as="targetPoint" />
          </mxGeometry>
        </mxCell>
        <mxCell id="AMXs057CgpVHMIE-D2bi-9" value="" style="endArrow=none;html=1;fillColor=#f5f5f5;strokeColor=#666666;fontStyle=1;labelBackgroundColor=none;" parent="1" edge="1">
          <mxGeometry width="50" height="50" relative="1" as="geometry">
            <mxPoint x="60" y="620" as="sourcePoint" />
            <mxPoint x="60" y="500" as="targetPoint" />
          </mxGeometry>
        </mxCell>
        <mxCell id="AMXs057CgpVHMIE-D2bi-10" value="" style="endArrow=none;html=1;entryX=0.008;entryY=0.35;entryDx=0;entryDy=0;entryPerimeter=0;fontStyle=1;labelBackgroundColor=none;" parent="1" target="bprUigWmoyp0Zu-9HLlU-22" edge="1">
          <mxGeometry width="50" height="50" relative="1" as="geometry">
            <mxPoint x="60" y="548" as="sourcePoint" />
            <mxPoint x="60" y="480" as="targetPoint" />
          </mxGeometry>
        </mxCell>
        <mxCell id="AMXs057CgpVHMIE-D2bi-12" value="" style="endArrow=none;html=1;fillColor=#dae8fc;strokeColor=#6c8ebf;fontStyle=1;labelBackgroundColor=none;" parent="1" edge="1">
          <mxGeometry width="50" height="50" relative="1" as="geometry">
            <mxPoint x="-90" y="620" as="sourcePoint" />
            <mxPoint x="-90" y="560" as="targetPoint" />
          </mxGeometry>
        </mxCell>
        <mxCell id="AMXs057CgpVHMIE-D2bi-14" value="" style="endArrow=none;html=1;entryX=0;entryY=0.5;entryDx=0;entryDy=0;fillColor=#dae8fc;strokeColor=#6c8ebf;fontStyle=1;labelBackgroundColor=none;" parent="1" target="bprUigWmoyp0Zu-9HLlU-29" edge="1">
          <mxGeometry width="50" height="50" relative="1" as="geometry">
            <mxPoint x="-90" y="560" as="sourcePoint" />
            <mxPoint x="60" y="480" as="targetPoint" />
          </mxGeometry>
        </mxCell>
        <mxCell id="AMXs057CgpVHMIE-D2bi-15" value="" style="endArrow=none;html=1;fillColor=#dae8fc;strokeColor=#6c8ebf;labelBackgroundColor=none;fontStyle=1" parent="1" edge="1">
          <mxGeometry width="50" height="50" relative="1" as="geometry">
            <mxPoint x="-90" y="250" as="sourcePoint" />
            <mxPoint x="-90" y="210" as="targetPoint" />
          </mxGeometry>
        </mxCell>
        <mxCell id="AMXs057CgpVHMIE-D2bi-17" value="" style="endArrow=none;html=1;fillColor=#dae8fc;strokeColor=#6c8ebf;labelBackgroundColor=none;fontStyle=1" parent="1" edge="1">
          <mxGeometry width="50" height="50" relative="1" as="geometry">
            <mxPoint x="-90" y="340" as="sourcePoint" />
            <mxPoint x="-90" y="300" as="targetPoint" />
          </mxGeometry>
        </mxCell>
        <mxCell id="AMXs057CgpVHMIE-D2bi-20" value="" style="endArrow=none;html=1;fillColor=#f5f5f5;strokeColor=#666666;labelBackgroundColor=none;" parent="1" edge="1">
          <mxGeometry width="50" height="50" relative="1" as="geometry">
            <mxPoint x="740" y="710" as="sourcePoint" />
            <mxPoint x="740" y="380" as="targetPoint" />
          </mxGeometry>
        </mxCell>
        <mxCell id="AMXs057CgpVHMIE-D2bi-21" value="" style="endArrow=none;html=1;entryX=1;entryY=0.5;entryDx=0;entryDy=0;" parent="1" edge="1">
          <mxGeometry width="50" height="50" relative="1" as="geometry">
            <mxPoint x="740" y="480" as="sourcePoint" />
            <mxPoint x="720" y="480" as="targetPoint" />
          </mxGeometry>
        </mxCell>
        <mxCell id="AMXs057CgpVHMIE-D2bi-22" value="" style="endArrow=classic;html=1;entryX=0;entryY=0.5;entryDx=0;entryDy=0;fillColor=#f5f5f5;strokeColor=#666666;labelBackgroundColor=none;" parent="1" target="tOq6qdo8Z2gQ8Yr5aN4T-90" edge="1">
          <mxGeometry width="50" height="50" relative="1" as="geometry">
            <mxPoint x="740" y="370" as="sourcePoint" />
            <mxPoint x="810" y="470" as="targetPoint" />
          </mxGeometry>
        </mxCell>
        <mxCell id="AMXs057CgpVHMIE-D2bi-23" value="" style="endArrow=classic;html=1;fillColor=#f5f5f5;strokeColor=#666666;labelBackgroundColor=none;entryX=0;entryY=0.5;entryDx=0;entryDy=0;" parent="1" target="tOq6qdo8Z2gQ8Yr5aN4T-95" edge="1">
          <mxGeometry width="50" height="50" relative="1" as="geometry">
            <mxPoint x="740" y="500" as="sourcePoint" />
            <mxPoint x="810" y="570" as="targetPoint" />
          </mxGeometry>
        </mxCell>
        <mxCell id="AMXs057CgpVHMIE-D2bi-25" value="" style="endArrow=classic;html=1;fillColor=#f5f5f5;strokeColor=#666666;labelBackgroundColor=none;" parent="1" edge="1">
          <mxGeometry width="50" height="50" relative="1" as="geometry">
            <mxPoint x="740" y="710" as="sourcePoint" />
            <mxPoint x="760" y="714" as="targetPoint" />
            <Array as="points">
              <mxPoint x="750" y="714" />
            </Array>
          </mxGeometry>
        </mxCell>
        <mxCell id="NtQ423EBmzJ1Fg9A84gU-1" value="Область карты" style="rounded=0;whiteSpace=wrap;html=1;fontFamily=Courier New;fontSize=14;fontStyle=1;fillColor=#d5e8d4;strokeColor=#82b366;labelBackgroundColor=none;" parent="1" vertex="1">
          <mxGeometry x="600" y="80" width="120" height="40" as="geometry" />
        </mxCell>
        <mxCell id="NtQ423EBmzJ1Fg9A84gU-2" value="Блок построения маршрута" style="rounded=0;whiteSpace=wrap;html=1;fontFamily=Courier New;fontSize=14;fontStyle=1;fillColor=#d5e8d4;strokeColor=#82b366;labelBackgroundColor=none;" parent="1" vertex="1">
          <mxGeometry x="600" y="450" width="120" height="60" as="geometry" />
        </mxCell>
        <mxCell id="NtQ423EBmzJ1Fg9A84gU-6" value="" style="endArrow=none;dashed=1;html=1;dashPattern=1 3;strokeWidth=1;labelBackgroundColor=none;fillColor=#f5f5f5;strokeColor=#666666;" parent="1" edge="1">
          <mxGeometry width="50" height="50" relative="1" as="geometry">
            <mxPoint x="960" y="429.5" as="sourcePoint" />
            <mxPoint x="1120" y="430" as="targetPoint" />
          </mxGeometry>
        </mxCell>
        <mxCell id="NtQ423EBmzJ1Fg9A84gU-10" value="" style="endArrow=classic;html=1;entryX=0.667;entryY=0.025;entryDx=0;entryDy=0;entryPerimeter=0;" parent="1" target="NtQ423EBmzJ1Fg9A84gU-2" edge="1">
          <mxGeometry width="50" height="50" relative="1" as="geometry">
            <mxPoint x="680" y="360" as="sourcePoint" />
            <mxPoint x="810" y="310" as="targetPoint" />
          </mxGeometry>
        </mxCell>
        <mxCell id="NtQ423EBmzJ1Fg9A84gU-11" value="" style="endArrow=classic;html=1;entryX=0.667;entryY=1;entryDx=0;entryDy=0;entryPerimeter=0;labelBackgroundColor=none;" parent="1" target="NtQ423EBmzJ1Fg9A84gU-1" edge="1">
          <mxGeometry width="50" height="50" relative="1" as="geometry">
            <mxPoint x="680" y="360" as="sourcePoint" />
            <mxPoint x="680" y="310" as="targetPoint" />
          </mxGeometry>
        </mxCell>
        <mxCell id="TJxVORBxjSYpZUYXprCH-9" value="" style="endArrow=none;html=1;fillColor=#dae8fc;strokeColor=#6c8ebf;labelBackgroundColor=none;fontStyle=1;exitX=0;exitY=0.5;exitDx=0;exitDy=0;" edge="1" parent="1" source="bprUigWmoyp0Zu-9HLlU-18">
          <mxGeometry width="50" height="50" relative="1" as="geometry">
            <mxPoint x="-80" y="260" as="sourcePoint" />
            <mxPoint x="-90" y="235" as="targetPoint" />
          </mxGeometry>
        </mxCell>
        <mxCell id="TJxVORBxjSYpZUYXprCH-10" value="" style="endArrow=none;html=1;fillColor=#dae8fc;strokeColor=#6c8ebf;labelBackgroundColor=none;fontStyle=1;exitX=0;exitY=0.5;exitDx=0;exitDy=0;" edge="1" parent="1" source="bprUigWmoyp0Zu-9HLlU-16">
          <mxGeometry width="50" height="50" relative="1" as="geometry">
            <mxPoint x="-33.75" y="245" as="sourcePoint" />
            <mxPoint x="-90" y="315" as="targetPoint" />
          </mxGeometry>
        </mxCell>
        <mxCell id="TJxVORBxjSYpZUYXprCH-11" value="" style="endArrow=classic;html=1;strokeWidth=1;entryX=0.988;entryY=0.633;entryDx=0;entryDy=0;entryPerimeter=0;" edge="1" parent="1" target="bprUigWmoyp0Zu-9HLlU-16">
          <mxGeometry width="50" height="50" relative="1" as="geometry">
            <mxPoint x="70" y="319" as="sourcePoint" />
            <mxPoint x="80" y="390" as="targetPoint" />
          </mxGeometry>
        </mxCell>
        <mxCell id="TJxVORBxjSYpZUYXprCH-12" value="" style="endArrow=classic;html=1;strokeWidth=1;" edge="1" parent="1">
          <mxGeometry width="50" height="50" relative="1" as="geometry">
            <mxPoint x="70" y="230" as="sourcePoint" />
            <mxPoint x="36" y="230" as="targetPoint" />
          </mxGeometry>
        </mxCell>
        <mxCell id="TJxVORBxjSYpZUYXprCH-13" value="" style="endArrow=none;html=1;strokeWidth=1;" edge="1" parent="1">
          <mxGeometry width="50" height="50" relative="1" as="geometry">
            <mxPoint x="740" y="380" as="sourcePoint" />
            <mxPoint x="740" y="280" as="targetPoint" />
          </mxGeometry>
        </mxCell>
        <mxCell id="TJxVORBxjSYpZUYXprCH-16" value="" style="endArrow=classic;html=1;fontFamily=Courier New;fontSize=14;entryX=0;entryY=0.5;entryDx=0;entryDy=0;fillColor=#dae8fc;strokeColor=#6c8ebf;labelBackgroundColor=none;" edge="1" parent="1" target="tOq6qdo8Z2gQ8Yr5aN4T-105">
          <mxGeometry width="50" height="50" relative="1" as="geometry">
            <mxPoint x="990" y="693.75" as="sourcePoint" />
            <mxPoint x="1020" y="663.75" as="targetPoint" />
          </mxGeometry>
        </mxCell>
        <mxCell id="TJxVORBxjSYpZUYXprCH-17" value="" style="endArrow=classic;html=1;fontFamily=Courier New;fontSize=14;entryX=0;entryY=0.5;entryDx=0;entryDy=0;fillColor=#dae8fc;strokeColor=#6c8ebf;labelBackgroundColor=none;" edge="1" parent="1" target="tOq6qdo8Z2gQ8Yr5aN4T-107">
          <mxGeometry width="50" height="50" relative="1" as="geometry">
            <mxPoint x="990" y="733.75" as="sourcePoint" />
            <mxPoint x="1020" y="703.75" as="targetPoint" />
          </mxGeometry>
        </mxCell>
        <mxCell id="TJxVORBxjSYpZUYXprCH-18" value="" style="endArrow=none;dashed=1;html=1;dashPattern=1 3;strokeWidth=1;labelBackgroundColor=none;fillColor=#f5f5f5;strokeColor=#666666;" edge="1" parent="1">
          <mxGeometry width="50" height="50" relative="1" as="geometry">
            <mxPoint x="961.25" y="320" as="sourcePoint" />
            <mxPoint x="1121.25" y="320.5" as="targetPoint" />
          </mxGeometry>
        </mxCell>
        <mxCell id="TJxVORBxjSYpZUYXprCH-19" value="" style="endArrow=none;dashed=1;html=1;dashPattern=1 3;strokeWidth=1;labelBackgroundColor=none;fillColor=#f5f5f5;strokeColor=#666666;" edge="1" parent="1">
          <mxGeometry width="50" height="50" relative="1" as="geometry">
            <mxPoint x="960" y="546.88" as="sourcePoint" />
            <mxPoint x="1120" y="547.38" as="targetPoint" />
          </mxGeometry>
        </mxCell>
        <mxCell id="TJxVORBxjSYpZUYXprCH-21" value="" style="endArrow=none;html=1;strokeWidth=1;" edge="1" parent="1">
          <mxGeometry width="50" height="50" relative="1" as="geometry">
            <mxPoint x="70" y="90" as="sourcePoint" />
            <mxPoint x="70" y="40" as="targetPoint" />
          </mxGeometry>
        </mxCell>
        <mxCell id="TJxVORBxjSYpZUYXprCH-22" value="" style="endArrow=none;html=1;strokeWidth=1;fillColor=#dae8fc;strokeColor=#6c8ebf;" edge="1" parent="1">
          <mxGeometry width="50" height="50" relative="1" as="geometry">
            <mxPoint x="-90" y="620" as="sourcePoint" />
            <mxPoint x="-70" y="620" as="targetPoint" />
          </mxGeometry>
        </mxCell>
        <mxCell id="TJxVORBxjSYpZUYXprCH-24" value="" style="endArrow=classic;html=1;fontFamily=Courier New;fontSize=14;entryX=1;entryY=0.5;entryDx=0;entryDy=0;fillColor=#fff2cc;strokeColor=#d6b656;fontStyle=1;labelBackgroundColor=none;" edge="1" parent="1">
          <mxGeometry width="50" height="50" relative="1" as="geometry">
            <mxPoint x="-420" y="410" as="sourcePoint" />
            <mxPoint x="-440" y="410" as="targetPoint" />
          </mxGeometry>
        </mxCell>
        <mxCell id="TJxVORBxjSYpZUYXprCH-28" value="" style="endArrow=none;dashed=1;html=1;dashPattern=1 3;strokeWidth=1;labelBackgroundColor=none;fillColor=#f5f5f5;strokeColor=#666666;" edge="1" parent="1">
          <mxGeometry width="50" height="50" relative="1" as="geometry">
            <mxPoint x="690" y="220" as="sourcePoint" />
            <mxPoint x="1140" y="221" as="targetPoint" />
          </mxGeometry>
        </mxCell>
        <mxCell id="TJxVORBxjSYpZUYXprCH-29" value="" style="endArrow=classic;html=1;fontFamily=Courier New;fontSize=14;fillColor=#dae8fc;strokeColor=#6c8ebf;labelBackgroundColor=none;" edge="1" parent="1">
          <mxGeometry relative="1" as="geometry">
            <mxPoint x="980" y="400" as="sourcePoint" />
            <mxPoint x="1010" y="400" as="targetPoint" />
          </mxGeometry>
        </mxCell>
        <mxCell id="TJxVORBxjSYpZUYXprCH-31" value="" style="endArrow=classic;html=1;strokeWidth=1;entryX=0;entryY=0.5;entryDx=0;entryDy=0;fillColor=#dae8fc;strokeColor=#6c8ebf;" edge="1" parent="1" target="tOq6qdo8Z2gQ8Yr5aN4T-102">
          <mxGeometry width="50" height="50" relative="1" as="geometry">
            <mxPoint x="990" y="580" as="sourcePoint" />
            <mxPoint x="960" y="500" as="targetPoint" />
          </mxGeometry>
        </mxCell>
        <mxCell id="TJxVORBxjSYpZUYXprCH-32" value="" style="endArrow=classic;html=1;strokeWidth=1;entryX=0;entryY=0.75;entryDx=0;entryDy=0;fillColor=#dae8fc;strokeColor=#6c8ebf;" edge="1" parent="1" target="tOq6qdo8Z2gQ8Yr5aN4T-106">
          <mxGeometry width="50" height="50" relative="1" as="geometry">
            <mxPoint x="990" y="780" as="sourcePoint" />
            <mxPoint x="1010" y="790" as="targetPoint" />
          </mxGeometry>
        </mxCell>
        <mxCell id="TJxVORBxjSYpZUYXprCH-33" value="" style="endArrow=none;html=1;strokeWidth=1;fillColor=#dae8fc;strokeColor=#6c8ebf;" edge="1" parent="1">
          <mxGeometry width="50" height="50" relative="1" as="geometry">
            <mxPoint x="990" y="520" as="sourcePoint" />
            <mxPoint x="990" y="460" as="targetPoint" />
          </mxGeometry>
        </mxCell>
      </root>
    </mxGraphModel>
  </diagram>
</mxfile>
